<svg height="512pt" viewBox="0 0 512 512" width="512pt" xmlns="http://www.w3.org/2000/svg"><path d="m378.980469 276.613281-60.402344 60.402344-24.898437-24.898437c-5.855469-5.855469-15.355469-5.855469-21.210938.003906-5.859375 5.855468-5.859375 15.355468 0 21.214844l35.507812 35.5c2.925782 2.929687 6.765626 4.394531 10.605469 4.394531 3.839844 0 7.675781-1.464844 10.605469-4.394531l71.007812-71.007813c5.859376-5.855469 5.859376-15.355469 0-21.210937-5.859374-5.859376-15.355468-5.859376-21.214843-.003907zm0 0"/><path d="m446.792969 183.660156h-95.460938v-118.453125c0-35.953125-29.253906-65.207031-65.210937-65.207031h-220.917969c-35.953125 0-65.203125 29.253906-65.203125 65.207031v147.714844c0 30.792969 21.460938 56.652344 50.203125 63.445313v36.972656c0 6.066406 3.65625 11.535156 9.261719 13.859375 1.855468.769531 3.804687 1.140625 5.738281 1.140625 3.902344 0 7.738281-1.523438 10.609375-4.394532l45.816406-45.8125h39.042969v118.449219c0 35.957031 29.25 65.207031 65.203125 65.207031h164.496094l45.8125 45.816407c2.871094 2.871093 6.707031 4.394531 10.613281 4.394531 1.929687 0 3.878906-.371094 5.734375-1.140625 5.605469-2.324219 9.261719-7.792969 9.261719-13.859375v-36.949219c28.75-6.792969 50.207031-32.671875 50.207031-63.46875v-147.714843c0-35.957032-29.253906-65.207032-65.207031-65.207032zm-331.378907 64.472656c-3.980468 0-7.796874 1.578126-10.605468 4.390626l-24.605469 24.601562v-13.992188c0-8.285156-6.714844-15-15-15-19.410156 0-35.203125-15.796874-35.203125-35.210937v-147.714844c0-19.414062 15.792969-35.207031 35.203125-35.207031h220.917969c19.414062 0 35.210937 15.792969 35.210937 35.207031v118.453125h-95.457031c-35.707031 0-64.789062 28.855469-65.1875 64.472656zm366.585938 148.449219c0 19.414063-15.792969 35.207031-35.207031 35.207031-8.285157 0-15 6.71875-15 15v13.996094l-24.601563-24.601562c-2.8125-2.816406-6.628906-4.394532-10.609375-4.394532h-170.707031c-19.410156 0-35.203125-15.792968-35.203125-35.207031v-147.714843c0-19.414063 15.792969-35.207032 35.203125-35.207032h220.917969c19.414062 0 35.207031 15.792969 35.207031 35.207032zm0 0"/></svg>