<svg xmlns="http://www.w3.org/2000/svg" version="1.0" width="624.000000" height="625.000000" preserveAspectRatio="xMidYMid meet" style=""><rect id="backgroundrect" width="100%" height="100%" x="0" y="0" fill="none" stroke="none"/>


<g class="currentLayer" style=""><title>Layer 1</title><g transform="translate(0,625) scale(0.10000000149011612,-0.10000000149011612) " fill="#03800b" stroke="none" id="svg_1" class="selected" fill-opacity="1">
<path d="M2900 6244 c-546 -37 -1088 -225 -1533 -530 -179 -123 -301 -226 -472 -398 -465 -467 -755 -1041 -867 -1716 -20 -121 -22 -170 -22 -475 0 -304 2 -354 22 -475 92 -560 301 -1036 650 -1480 102 -129 384 -408 512 -507 464 -355 942 -557 1515 -639 170 -25 659 -25 830 0 576 83 1066 292 1535 654 111 86 394 370 495 496 336 422 556 923 647 1476 20 120 22 172 23 470 0 276 -3 355 -18 450 -112 710 -417 1305 -919 1796 -482 471 -1081 762 -1766 859 -100 14 -519 27 -632 19z m-396 -2014 c239 -252 547 -557 589 -584 21 -15 30 -15 49 -5 33 18 335 317 591 587 121 127 226 232 232 232 5 0 120 -110 255 -245 l245 -246 -155 -146 c-236 -223 -607 -592 -651 -646 l-39 -49 17 -29 c19 -32 434 -447 673 -673 80 -76 146 -141 148 -145 4 -10 -474 -485 -491 -489 -7 -1 -71 59 -142 135 -203 216 -595 612 -648 654 -27 22 -56 39 -64 39 -19 0 -370 -346 -631 -623 -108 -114 -202 -207 -210 -207 -17 0 -492 468 -492 485 0 5 55 61 123 124 461 430 707 682 707 725 0 18 -26 52 -87 117 -118 124 -436 436 -605 594 -76 70 -138 131 -138 134 0 11 484 491 495 491 6 0 109 -104 229 -230z" id="svg_2" fill="#03800b" fill-opacity="1"/>
</g></g></svg>